<svg width="85" height="91" viewBox="0 0 85 91" fill="none" xmlns="http://www.w3.org/2000/svg">
<path fill-rule="evenodd" clip-rule="evenodd" d="M21.4721 0.490257H70.2821C78.0481 0.490257 84.3571 6.86126 84.3571 14.6883V63.3813C84.3571 71.1393 77.9791 77.5113 70.2831 77.5113H26.6731V71.0693H69.8671C74.5121 71.0693 77.9791 67.5373 77.9791 63.0353V15.0353C77.9791 10.3943 74.5121 6.93126 69.8671 6.93126H21.8191C17.1731 6.93126 13.7071 10.4633 13.7071 15.0353V43.5023C11.5571 45.4423 9.33913 47.4503 7.60513 49.7363C7.53613 49.8743 7.39712 50.0133 7.32812 50.0823V14.6883C7.32812 6.86126 13.7071 0.490257 21.4721 0.490257Z" fill="white"/>
<path fill-rule="evenodd" clip-rule="evenodd" d="M18.5596 11.78C32.5646 12.403 45.6696 24.316 45.8766 38.654C46.0166 23 60.5766 12.194 73.1246 11.71V29.51C64.0426 29.788 52.8796 29.442 45.8076 39C15.7866 39 -1.33936 66.29 0.879635 90.325H20.1546C17.3796 71 24.7296 45.095 45.8076 39C61.4076 39 72.2926 53.753 73.1246 66.22H55.3756C55.0986 56.385 54.7516 45.442 45.8076 39C39.0126 29.719 28.7516 29.857 18.5596 29.58V11.78Z" fill="white"/>
</svg>